HIERARCHY
ROOT hip
{
	OFFSET 0.000000 0.000000 0.000000 
	CHANNELS 6 Xposition Yposition Zposition Xrotation Zrotation Yrotation
	JOINT abdomen
	{
		OFFSET 0.000000 3.402643 0.000000 
		CHANNELS 3 Xrotation Zrotation Yrotation
		JOINT chest
		{
			OFFSET 0.000000 8.438565 -0.680529 
			CHANNELS 3 Xrotation Zrotation Yrotation
			JOINT neck
			{
				OFFSET 0.000000 10.207942 -0.272212 
				CHANNELS 3 Xrotation Zrotation Yrotation
				JOINT head
				{
					OFFSET 0.000000 3.130431 0.000000 
					CHANNELS 3 Xrotation Zrotation Yrotation
					End Site
					{
						OFFSET 0.000000 3.130435 0.000000 
					}
				}
			}
			JOINT lCollar
			{
				OFFSET 3.470700 6.669187 -0.816635 
				CHANNELS 3 Yrotation Zrotation Xrotation
				JOINT lShldr
				{
					OFFSET 3.198488 0.000000 0.000000 
					CHANNELS 3 Zrotation Yrotation Xrotation
					JOINT lForeArm
					{
						OFFSET 10.139888 0.000000 0.000000 
						CHANNELS 3 Yrotation Zrotation Xrotation
						JOINT lHand
						{
							OFFSET 8.370511 0.000000 0.000000 
							CHANNELS 3 Zrotation Yrotation Xrotation
							End Site
							{
								OFFSET 4.083176 0.000000 0.000000 
							}
						}
					}
				}
			}
			JOINT rCollar
			{
				OFFSET -3.470700 6.669187 -0.816635 
				CHANNELS 3 Yrotation Zrotation Xrotation
				JOINT rShldr
				{
					OFFSET -3.198488 0.000000 0.000000 
					CHANNELS 3 Zrotation Yrotation Xrotation
					JOINT rForeArm
					{
						OFFSET -10.139888 0.000000 0.000000 
						CHANNELS 3 Yrotation Zrotation Xrotation
						JOINT rHand
						{
							OFFSET -8.370511 0.000000 0.000000 
							CHANNELS 3 Zrotation Yrotation Xrotation
							End Site
							{
								OFFSET -4.083176 0.000000 0.000000 
							}
						}
					}
				}
			}
		}
	}
	JOINT lThigh
	{
		OFFSET 5.308129 -1.633274 1.361059 
		CHANNELS 3 Xrotation Zrotation Yrotation
		JOINT lShin
		{
			OFFSET -2.041588 -20.007561 0.000000 
			CHANNELS 3 Xrotation Zrotation Yrotation
			JOINT lFoot
			{
				OFFSET 0.000000 -19.190928 -1.224953 
				CHANNELS 3 Xrotation Yrotation Zrotation
				End Site
				{
					OFFSET 0.000000 -2.449906 4.627600 
				}
			}
		}
	}
	JOINT rThigh
	{
		OFFSET -5.308129 -1.633274 1.361059 
		CHANNELS 3 Xrotation Zrotation Yrotation
		JOINT rShin
		{
			OFFSET 2.041588 -20.007561 0.000000 
			CHANNELS 3 Xrotation Zrotation Yrotation
			JOINT rFoot
			{
				OFFSET 0.000000 -19.190928 -1.224953 
				CHANNELS 3 Xrotation Yrotation Zrotation
				End Site
				{
					OFFSET 0.000000 -2.449906 4.627600 
				}
			}
		}
	}
}
MOTION
Frames: 13
Frame Time: 0.033333
-2.194279 43.033195 9.917183 -17.853600 2.214670 -7.863860 0.000000 0.000000 0.000000 34.951302 3.237010 1.389410 17.742701 -18.067699 4.046510 -16.900900 -10.196000 -2.046760 6.727552 4.248000 6.579381 -75.554001 4.060810 0.757844 -84.426804 -11.878900 5.934880 7.805500 18.097900 -19.681499 0.399691 -12.226274 13.141435 74.013100 26.390800 6.904480 95.768303 -12.717600 63.973900 12.368300 -27.467899 -56.746899 -0.811730 -2.147887 18.428331 36.045872 -1.436648 -9.747237 -5.620755 -1.497864 5.136409 -13.668660 -12.532725 -20.238188 60.755077 -8.250545 4.351146 0.333395 -5.297964 -5.140576 
-1.656978 42.369862 9.944144 -16.741800 3.195340 -9.581640 0.000000 0.000000 0.000000 34.763901 3.936160 1.798400 13.623600 -18.076099 5.155230 -13.867200 -10.152200 -1.439370 4.953378 3.979272 7.565035 -77.741402 6.385390 0.070993 -87.380203 -10.084700 5.681680 7.294200 16.724400 -19.730301 1.627001 -13.500613 13.544891 67.740700 27.996799 3.461730 95.996902 -12.757100 62.162601 14.181400 -27.591400 -57.740601 -1.965560 -3.796661 21.185938 36.406666 -1.823004 -8.100921 -9.699797 -2.581417 6.048022 -16.647446 -13.393670 -19.465418 60.929302 -7.783090 -6.853558 -3.399879 -7.471110 -6.237314 
-1.237406 41.593742 10.049214 -16.102400 4.589870 -10.330600 0.000000 0.000000 0.000000 34.347900 4.054300 1.642050 9.135900 -17.655100 5.812690 -9.247410 -8.589450 -1.072140 3.227209 3.042052 7.894685 -78.036301 7.393560 -0.676522 -89.533798 -9.149790 5.495680 7.081680 16.073900 -19.861000 3.027344 -13.039043 14.123322 60.452400 27.849600 -0.661435 95.588501 -12.590800 59.781898 15.032300 -27.684999 -58.432301 -3.276835 -5.759883 22.398561 37.885609 -2.008204 -7.654809 -13.930327 -2.593811 7.191216 -18.572886 -14.490291 -17.411240 62.039238 -8.369202 -11.685465 -7.166461 -9.005525 -1.868587 
-0.998310 40.754704 10.218968 -16.292000 6.399300 -10.298400 0.000000 0.000000 0.000000 33.932800 3.213520 1.046290 5.267170 -16.953400 5.741130 -4.131640 -5.460740 -0.953830 2.197680 1.112463 7.310645 -75.506203 6.199340 -0.676567 -90.474701 -8.897770 4.994400 7.293460 16.536200 -19.891001 4.406914 -10.974112 14.572351 54.356701 25.578300 -4.002600 94.522102 -12.311900 57.967499 15.015800 -27.542700 -58.535198 -4.284513 -7.918425 22.252373 40.410294 -2.184406 -6.454111 -17.733040 -3.280219 8.072015 -19.742493 -15.581550 -13.271810 65.222084 -9.599696 -12.124722 -9.828182 -10.264534 4.228206 
-0.952872 39.971725 10.415571 -17.283501 8.344480 -9.703130 0.000000 0.000000 0.000000 33.607601 1.606320 0.272980 3.161410 -16.018000 4.876250 -0.268911 -1.383680 -1.114410 2.237427 -1.795506 6.115333 -70.871597 2.333740 -0.118211 -90.020500 -9.425820 4.222400 7.806930 17.879200 -19.721399 5.300931 -8.382480 14.632622 52.050900 21.907499 -5.115230 92.953003 -12.127100 57.458302 14.883500 -27.157499 -58.237499 -4.619088 -9.921159 21.759874 43.438850 -2.204238 -5.288875 -20.566019 -4.329955 8.355494 -20.282076 -16.424631 -8.043513 69.931236 -10.908191 -11.111273 -11.280101 -10.981020 8.296233 
-1.079899 39.377594 10.611434 -18.552700 10.162500 -8.429270 0.000000 0.000000 0.000000 33.115501 -0.187265 -0.588018 3.123200 -14.595400 3.145730 1.392540 3.271320 -1.527670 3.039809 -5.188043 5.051160 -66.384003 -3.676790 0.022837 -88.223198 -10.705700 3.826410 8.144770 19.200899 -19.534201 5.207631 -6.331394 14.424313 54.481800 17.856701 -4.161900 91.170700 -12.148400 58.382401 15.835800 -26.450001 -58.055599 -4.305504 -11.346288 21.537149 46.161816 -1.803899 -6.573937 -22.191587 -3.958894 8.554920 -20.414352 -16.948029 -3.873252 74.874794 -11.943374 -10.307114 -11.334021 -11.134902 8.761603 
-1.360820 39.071247 10.790612 -19.408400 11.656700 -6.361080 0.000000 0.000000 0.000000 32.224602 -1.866140 -1.589310 4.489090 -12.491200 0.735314 1.158260 8.550060 -1.956830 3.915575 -8.047824 4.650641 -63.927700 -10.429700 -1.143840 -85.606003 -12.748800 4.177820 8.018940 19.646799 -19.501301 4.186934 -5.162043 14.235024 60.579601 13.822100 -2.289040 89.494003 -12.294600 60.055302 18.205200 -25.764400 -58.445801 -3.652513 -11.972191 21.362257 47.752731 -1.061001 -10.434328 -22.790352 -1.926414 8.942939 -20.595177 -17.206585 -2.233054 78.891594 -12.558535 -10.311417 -10.012548 -10.838470 6.178502 
-1.781527 39.112690 10.935732 -19.456200 12.613900 -3.927790 0.000000 0.000000 0.000000 31.088699 -3.626440 -2.746050 6.127480 -9.604950 -1.808970 -0.061872 14.196800 -2.183400 4.364595 -9.338554 4.723346 -63.812599 -16.314501 -2.572240 -82.770500 -14.379500 5.324260 7.476820 19.107800 -19.629000 2.860145 -4.437847 14.030177 67.872101 9.736460 0.009556 88.152100 -12.481700 61.014999 20.878000 -25.943501 -59.393799 -2.786496 -11.848437 20.886347 47.391247 -0.378497 -14.627098 -22.567669 0.277655 9.061267 -20.960419 -17.006214 -2.979455 81.078445 -12.763666 -10.849541 -7.940995 -10.152252 2.427444 
-2.320638 39.526016 11.018558 -18.693001 12.796800 -1.721530 0.000000 0.000000 0.000000 30.198500 -5.688330 -3.971200 6.903100 -5.904480 -3.841940 -1.318050 19.518499 -2.179310 4.523117 -8.557648 4.581891 -65.144501 -20.406300 -3.500880 -80.154701 -15.386600 6.633780 6.689820 18.009800 -19.829500 1.731901 -3.582351 13.419192 73.766197 5.539960 3.206730 87.174400 -12.717200 60.235401 22.709999 -26.935301 -60.296600 -1.894522 -11.141739 19.826359 44.871983 -0.114534 -17.146429 -21.441809 1.611629 8.351785 -21.206453 -16.011784 -5.098609 80.879021 -12.509763 -10.885009 -6.155205 -9.217264 -0.339756 
-2.954731 40.267975 11.002752 -17.224400 12.043900 0.169608 0.000000 0.000000 0.000000 29.892401 -7.880960 -5.190710 6.045620 -1.381440 -5.166760 -2.061350 24.005699 -2.153950 4.622001 -5.636028 3.727061 -67.009102 -22.603300 -3.612690 -77.825401 -16.021799 7.688370 5.712150 16.831100 -20.052000 0.928411 -2.187213 12.008439 76.975502 1.356610 7.485670 86.712097 -13.070200 58.294102 23.693300 -27.312500 -60.472401 -1.318463 -9.754634 17.705952 40.750603 -0.366608 -17.500633 -19.174717 2.066653 6.675215 -20.983673 -14.050594 -7.851831 78.171860 -11.747936 -9.668951 -5.251573 -8.362553 -0.678864 
-3.655071 41.214615 10.861813 -15.065200 10.369600 2.154940 0.000000 0.000000 0.000000 30.388800 -9.813720 -6.490870 3.266880 3.917610 -6.280820 -2.289250 27.601200 -2.335600 4.551338 -0.895605 2.131981 -68.693199 -23.483000 -3.120300 -75.712303 -16.622801 8.553720 4.458520 15.926200 -20.270500 0.400394 -0.244135 9.650185 77.845901 -2.563460 11.989700 87.052299 -13.525800 56.769901 23.921700 -26.256599 -59.645802 -1.724955 -7.513794 14.688916 36.283134 -0.778857 -16.701021 -15.755040 1.988786 4.557544 -20.238848 -11.323921 -11.258013 72.997124 -10.420265 -7.294498 -4.525851 -7.899066 -0.245324 
-4.382416 42.192345 10.603380 -12.539900 8.034000 4.498710 0.000000 0.000000 0.000000 31.747900 -11.105400 -7.870330 -1.205320 9.569760 -7.819670 -2.544680 30.198000 -3.227160 4.116153 4.821574 0.238955 -69.445198 -23.903200 -2.465560 -73.854202 -17.294600 9.067860 3.010690 15.522400 -20.493200 0.156345 2.001945 6.654356 77.416397 -6.101970 15.549200 88.403900 -14.012500 56.644402 23.089399 -24.695700 -58.095699 -3.550681 -4.460254 11.918509 32.883190 -0.681060 -16.326841 -11.693833 1.534655 2.648720 -18.885902 -8.329448 -15.331774 65.766884 -8.603251 -4.357081 -3.812224 -7.665057 -0.583481 
-5.094763 43.010380 10.281261 -10.094300 5.476640 7.041460 0.000000 0.000000 0.000000 33.619301 -11.581100 -9.122100 -6.488440 14.613700 -10.112900 -3.370950 31.663799 -5.196450 3.315876 10.363856 -1.193668 -68.717796 -24.656900 -2.097840 -72.424202 -18.065901 8.888550 1.690530 15.497600 -20.757700 0.186021 4.091775 3.833720 76.706802 -9.053610 17.301300 90.788597 -14.501500 57.612099 21.482401 -23.684900 -56.438000 -6.705449 -1.181715 10.336846 31.499634 0.217201 -17.315439 -7.837258 0.845272 1.503698 -16.786451 -5.429229 -19.412888 57.312191 -6.425557 -1.374908 -3.405079 -7.209871 -2.087632 
